<svg width="32" height="32" viewBox="0 0 32 32" fill="none" xmlns="http://www.w3.org/2000/svg">
  <!-- Stylized 'd' -->
  <path d="M20 4V28H16V26C14.8 27.3 13.2 28 11.5 28C7.4 28 4 24.5 4 20C4 15.5 7.4 12 11.5 12C13.2 12 14.8 12.7 16 14V4H20ZM12 24C14.2 24 16 22.2 16 20C16 17.8 14.2 16 12 16C9.8 16 8 17.8 8 20C8 22.2 9.8 24 12 24Z" fill="#171717"/>
  <!-- Mini bar chart on right side -->
  <rect x="23" y="20" width="3" height="8" rx="1" fill="#171717" opacity="0.5"/>
  <rect x="27" y="14" width="3" height="14" rx="1" fill="#171717" opacity="0.7"/>
</svg>
